<svg xmlns="http://www.w3.org/2000/svg" xmlns:android="http://schemas.android.com/apk/res/android" width="48dp" height="48dp" viewportWidth="42" viewportHeight="48">
	<path fill="#121212" fill-rule="nonZero" d="M14.5,24.5m-2.5,0a2.5,2.5 0,1 1,5 0a2.5,2.5 0,1 1,-5 0"/>
	<path fill="#121212" fill-rule="nonZero" d="M27.5,24.5m-2.5,0a2.5,2.5 0,1 1,5 0a2.5,2.5 0,1 1,-5 0"/>
	<path fill="#121212" fill-rule="nonZero" d="M25.89,35a5.47,5.47 0,0 1,-9.79 0l-0.21,-0.42 -1.79,0.89 0.21,0.42a7.47,7.47 0,0 0,13.37 0l0.21,-0.42 -1.79,-0.9 -0.21,0.43z"/>
	<path fill="#121212" fill-rule="nonZero" d="M39,20.05V19c0.017,-8.46 -6.556,-15.471 -15,-16V0l-6.67,0.59C9.186,1.445 3.001,8.311 3,16.5v3.55a3.49,3.49 0,0 0,-3 3.45V26a6,6 0,0 0,5 5.92,14.25 14.25,0 0,0 4.82,9.79l3.61,3.17c4.152,4.118 10.848,4.118 15,0l3.66,-3.21A14.25,14.25 0,0 0,37 31.92,6 6,0 0,0 42,26v-2.5a3.49,3.49 0,0 0,-3 -3.45zM17.53,2.58L22,2.11V5h1c7.732,0 14,6.268 14,14v0.75l-3.18,-2.38 -2,-5.09 -0.34,-0.17A25.11,25.11 0,0 0,21 10a25.11,25.11 0,0 0,-10.45 2.11l-0.34,0.17 -2,5.09L5,19.75V16.5A14,14 0,0 1,17.53 2.58zM40,26a4,4 0,0 1,-4 4h-1v1a12.25,12.25 0,0 1,-4.17 9.21l-3.71,3.26a8.66,8.66 0,0 1,-12.29 0l-3.66,-3.21A12.25,12.25 0,0 1,7 31v-1H6a4,4 0,0 1,-4 -4v-2.5a1.5,1.5 0,0 1,3 0V27h2v-3.5a3.47,3.47 0,0 0,-0.77 -2.17l3.6,-2.7 2,-4.89A24.22,24.22 0,0 1,21 12a24.36,24.36 0,0 1,9.22 1.75l2,4.89 3.6,2.7A3.47,3.47 0,0 0,35 23.5V27h2v-3.5a1.5,1.5 0,0 1,3 0V26z"/>
</svg>
