<svg xmlns="http://www.w3.org/2000/svg" xmlns:android="http://schemas.android.com/apk/res/android" width="48dp" height="48dp" viewportWidth="46" viewportHeight="48">
	<path fill="#121212" fill-rule="nonZero" d="M39.65,7a15,15 0,0 0,-11.24 -5l-2,-2L26,0C17.61,0 11.17,2.44 6.83,7.25 1.08,13.63 -1.05,24.34 0.49,39.1l0.07,0.66 13.26,3.94 2.06,1.72A11,11 0,0 0,23 48a11.23,11.23 0,0 0,7.2 -2.62c0.62,-0.51 1.2,-1.05 1.75,-1.62C36.71,42.33 43.66,40 44.62,40h0.78l0.09,-0.9C47.05,24.08 45,13 39.65,7zM28.83,43.89a9.11,9.11 0,0 1,-11.66 0l-3.68,-3.07A12.45,12.45 0,0 1,9 31.23v-9a51.82,51.82 0,0 0,8.89 -3c4.48,-1.88 7.48,-3.9 9,-6C29.13,17.61 35,21.09 37,22.1v4.43a22.51,22.51 0,0 1,-8.17 17.36zM43.57,38.22c-1.08,0.31 -3.54,1 -9.26,2.73A24.44,24.44 0,0 0,39 26.53v-5.65l-0.55,-0.27C35.54,19.15 28,14 28,10h-2c0,5 -13.16,9.32 -18.23,10.53l-0.77,0.18v10.52a14.42,14.42 0,0 0,3.48 9.39l-8.08,-2.4C1.06,24.4 3,14.43 8.32,8.58 12.19,4.29 18,2.08 25.58,2l2,2L28,4a13.11,13.11 0,0 1,10.16 4.35c4.92,5.45 6.78,15.77 5.41,29.87z"/>
	<path fill="#121212" fill-rule="nonZero" d="M16.5,25.5m-2.5,0a2.5,2.5 0,1 1,5 0a2.5,2.5 0,1 1,-5 0"/>
	<path fill="#121212" fill-rule="nonZero" d="M29.5,25.5m-2.5,0a2.5,2.5 0,1 1,5 0a2.5,2.5 0,1 1,-5 0"/>
	<path fill="#121212" fill-rule="nonZero" d="M26.83,35.95a4.61,4.61 0,0 1,-7.66 0l-0.34,-0.5 -1.66,1.11 0.34,0.5a6.61,6.61 0,0 0,11 0l0.34,-0.5 -1.66,-1.11 -0.36,0.5z"/>
</svg>
